<svg version="1.1" xmlns="http://www.w3.org/2000/svg" xmlns:xlink="http://www.w3.org/1999/xlink" width="1372" height="628"><defs/><g><g transform="translate(-22,-62) scale(1,1)"><rect fill="#C0C0C0" stroke="none" x="39" y="79" width="265.6" height="15" opacity="0.2"/></g><g transform="translate(-22,-62) scale(1,1)"><rect fill="#C0C0C0" stroke="none" x="39" y="93" width="664" height="290" opacity="0.2"/></g><g transform="translate(-22,-62) scale(1,1)"><rect fill="#ffffff" stroke="none" x="32" y="87" width="664" height="289"/></g><g transform="translate(-22,-62) scale(1,1)"><path fill="none" stroke="#000000" d="M 32 87 L 696 87 L 696 376 L 32 376 L 32 87 Z Z" stroke-miterlimit="10"/></g><g transform="translate(-22,-62) scale(1,1)"><rect fill="#ffffff" stroke="none" x="32" y="72" width="265.6" height="15"/></g><g transform="translate(-22,-62) scale(1,1)"><path fill="none" stroke="#000000" d="M 32 72 L 297.6 72 L 297.6 87 L 32 87 L 32 72 Z Z" stroke-miterlimit="10"/></g><g transform="translate(-22,-62) scale(1,1)"><rect fill="#ffffff" stroke="none" x="32" y="86" width="664" height="290"/></g><g transform="translate(-22,-62) scale(1,1)"><path fill="none" stroke="#000000" d="M 32 86 L 696 86 L 696 376 L 32 376 L 32 86 Z Z" stroke-miterlimit="10"/></g><g transform="translate(-22,-62) scale(1,1)"><g><path fill="none" stroke="none"/><text fill="#000000" stroke="none" font-family="Arial" font-size="13px" font-style="normal" font-weight="bold" text-decoration="none" x="322.476806640625" y="105">configuration</text></g></g><g transform="translate(-22,-62) scale(1,1)"><rect fill="#C0C0C0" stroke="none" x="55" y="175" width="309.93603515625" height="120" opacity="0.2"/></g><g transform="translate(-22,-62) scale(1,1)"><rect fill="#ffffff" stroke="none" x="48" y="168" width="309.93603515625" height="120"/></g><g transform="translate(-22,-62) scale(1,1)"><path fill="none" stroke="#000000" d="M 48 168 L 357.93603515625 168 L 357.93603515625 288 L 48 288 L 48 168 Z Z" stroke-miterlimit="10"/></g><g transform="translate(-22,-62) scale(1,1)"><path fill="none" stroke="#000000" d="M 48 193 L 357.93603515625 193" stroke-miterlimit="10"/></g><g transform="translate(-22,-62) scale(1,1)"><path fill="none" stroke="#000000" d="M 48 231 L 357.93603515625 231" stroke-miterlimit="10"/></g><g transform="translate(-22,-62) scale(1,1)"><g><path fill="none" stroke="none"/><text fill="#000000" stroke="none" font-family="Arial" font-size="13px" font-style="normal" font-weight="bold" text-decoration="none" x="182.39208984375" y="186">Config</text></g></g><g transform="translate(-22,-62) scale(1,1)"><g><path fill="none" stroke="none"/><text fill="#000000" stroke="none" font-family="Arial" font-size="13px" font-style="normal" font-weight="normal" text-decoration="none" x="53" y="209">-NB_GROUP</text></g></g><g transform="translate(-22,-62) scale(1,1)"><g><path fill="none" stroke="none"/><text fill="#000000" stroke="none" font-family="Arial" font-size="13px" font-style="normal" font-weight="normal" text-decoration="none" x="53" y="224">-PROPERTIES</text></g></g><g transform="translate(-22,-62) scale(1,1)"><g><path fill="none" stroke="none"/><text fill="#000000" stroke="none" font-family="Arial" font-size="13px" font-style="normal" font-weight="normal" text-decoration="none" x="53" y="247">+createServer(): ServerInfo</text></g></g><g transform="translate(-22,-62) scale(1,1)"><g><path fill="none" stroke="none"/><text fill="#000000" stroke="none" font-family="Arial" font-size="13px" font-style="normal" font-weight="normal" text-decoration="none" x="53" y="262">+getAllMail(): LinkedList&lt;Email&gt;</text></g></g><g transform="translate(-22,-62) scale(1,1)"><g><path fill="none" stroke="none"/><text fill="#000000" stroke="none" font-family="Arial" font-size="13px" font-style="normal" font-weight="normal" text-decoration="none" x="53" y="277">+checkAdressMail(mailAddress: LinkedList&lt;String&gt;)</text></g></g><g transform="translate(-22,-62) scale(1,1)"><rect fill="#C0C0C0" stroke="none" x="399" y="175" width="237.69970703125" height="72" opacity="0.2"/></g><g transform="translate(-22,-62) scale(1,1)"><rect fill="#ffffff" stroke="none" x="392" y="168" width="237.69970703125" height="72"/></g><g transform="translate(-22,-62) scale(1,1)"><path fill="none" stroke="#000000" d="M 392 168 L 629.69970703125 168 L 629.69970703125 240 L 392 240 L 392 168 Z Z" stroke-miterlimit="10"/></g><g transform="translate(-22,-62) scale(1,1)"><path fill="none" stroke="#000000" d="M 392 193 L 629.69970703125 193" stroke-miterlimit="10"/></g><g transform="translate(-22,-62) scale(1,1)"><path fill="none" stroke="#000000" d="M 392 203 L 629.69970703125 203" stroke-miterlimit="10"/></g><g transform="translate(-22,-62) scale(1,1)"><g><path fill="none" stroke="none"/><text fill="#000000" stroke="none" font-family="Arial" font-size="13px" font-style="normal" font-weight="bold" text-decoration="none" x="474.72216796875" y="186">DataReader</text></g></g><g transform="translate(-22,-62) scale(1,1)"><g><path fill="none" stroke="none"/><text fill="#000000" stroke="none" font-family="Arial" font-size="13px" font-style="normal" font-weight="normal" text-decoration="none" x="397" y="219">+readMailAdresse(): LinkedList&lt;String&gt;</text><path fill="none" stroke="#000000" d="M 397 220.5 L 625.69970703125 220.5" stroke-miterlimit="10"/></g></g><g transform="translate(-22,-62) scale(1,1)"><g><path fill="none" stroke="none"/><text fill="#000000" stroke="none" font-family="Arial" font-size="13px" font-style="normal" font-weight="normal" text-decoration="none" x="397" y="234">+readFakeMail(): LinkedList&lt;String&gt;</text><path fill="none" stroke="#000000" d="M 397 235.5 L 606.91064453125 235.5" stroke-miterlimit="10"/></g></g><g transform="translate(-22,-62) scale(1,1)"><rect fill="#C0C0C0" stroke="none" x="735" y="79" width="262.4" height="15" opacity="0.2"/></g><g transform="translate(-22,-62) scale(1,1)"><rect fill="#C0C0C0" stroke="none" x="735" y="93" width="656" height="362" opacity="0.2"/></g><g transform="translate(-22,-62) scale(1,1)"><rect fill="#ffffff" stroke="none" x="728" y="87" width="656" height="361"/></g><g transform="translate(-22,-62) scale(1,1)"><path fill="none" stroke="#000000" d="M 728 87 L 1384 87 L 1384 448 L 728 448 L 728 87 Z Z" stroke-miterlimit="10"/></g><g transform="translate(-22,-62) scale(1,1)"><rect fill="#ffffff" stroke="none" x="728" y="72" width="262.4" height="15"/></g><g transform="translate(-22,-62) scale(1,1)"><path fill="none" stroke="#000000" d="M 728 72 L 990.4 72 L 990.4 87 L 728 87 L 728 72 Z Z" stroke-miterlimit="10"/></g><g transform="translate(-22,-62) scale(1,1)"><rect fill="#ffffff" stroke="none" x="728" y="86" width="656" height="362"/></g><g transform="translate(-22,-62) scale(1,1)"><path fill="none" stroke="#000000" d="M 728 86 L 1384 86 L 1384 448 L 728 448 L 728 86 Z Z" stroke-miterlimit="10"/></g><g transform="translate(-22,-62) scale(1,1)"><g><path fill="none" stroke="none"/><text fill="#000000" stroke="none" font-family="Arial" font-size="13px" font-style="normal" font-weight="bold" text-decoration="none" x="1042.635009765625" y="105">data</text></g></g><g transform="translate(-22,-62) scale(1,1)"><rect fill="#C0C0C0" stroke="none" x="751" y="183" width="306.298828125" height="88" opacity="0.2"/></g><g transform="translate(-22,-62) scale(1,1)"><rect fill="#ffffff" stroke="none" x="744" y="176" width="306.298828125" height="88"/></g><g transform="translate(-22,-62) scale(1,1)"><path fill="none" stroke="#000000" d="M 744 176 L 1050.298828125 176 L 1050.298828125 264 L 744 264 L 744 176 Z Z" stroke-miterlimit="10"/></g><g transform="translate(-22,-62) scale(1,1)"><path fill="none" stroke="#000000" d="M 744 201 L 1050.298828125 201" stroke-miterlimit="10"/></g><g transform="translate(-22,-62) scale(1,1)"><path fill="none" stroke="#000000" d="M 744 224 L 1050.298828125 224" stroke-miterlimit="10"/></g><g transform="translate(-22,-62) scale(1,1)"><g><path fill="none" stroke="none"/><text fill="#000000" stroke="none" font-family="Arial" font-size="13px" font-style="normal" font-weight="bold" text-decoration="none" x="879.8076171875" y="194">Email</text></g></g><g transform="translate(-22,-62) scale(1,1)"><g><path fill="none" stroke="none"/><text fill="#000000" stroke="none" font-family="Arial" font-size="13px" font-style="normal" font-weight="normal" text-decoration="none" x="749" y="217">-FAKE_EMAIL: String</text></g></g><g transform="translate(-22,-62) scale(1,1)"><g><path fill="none" stroke="none"/><text fill="#000000" stroke="none" font-family="Arial" font-size="13px" font-style="normal" font-weight="normal" text-decoration="none" x="749" y="240">+Email(fakeEmail: String, emailGroup: EmailGroup)</text></g></g><g transform="translate(-22,-62) scale(1,1)"><path fill="none" stroke="#000000" d="M 1050 216 L 1144 216" stroke-miterlimit="10"/></g><g transform="translate(-22,-62) scale(1,1)"><path fill="#000000" stroke="none" d="M 1133.837325142376 220.209517756016 L 1144 216 L 1133.837325142376 211.790482243984 L 1122 216"/></g><g transform="translate(-22,-62) scale(1,1)"><path fill="none" stroke="#000000" d="M 1133.837325142376 220.209517756016 L 1144 216 L 1133.837325142376 211.790482243984 L 1122 216 L 1133.837325142376 220.209517756016" stroke-miterlimit="10"/></g><g transform="translate(-22,-62) scale(1,1)"><g><path fill="none" stroke="none"/><text fill="#000000" stroke="none" font-family="Arial" font-size="13px" font-style="normal" font-weight="normal" text-decoration="none" x="1061.5" y="233">1..*</text></g></g><g transform="translate(-22,-62) scale(1,1)"><g><path fill="none" stroke="none"/><text fill="#000000" stroke="none" font-family="Arial" font-size="13px" font-style="normal" font-weight="normal" text-decoration="none" x="1118.641357421875" y="233">1</text></g></g><g transform="translate(-22,-62) scale(1,1)"><rect fill="#C0C0C0" stroke="none" x="1151" y="175" width="203.365234375" height="100" opacity="0.2"/></g><g transform="translate(-22,-62) scale(1,1)"><rect fill="#ffffff" stroke="none" x="1144" y="168" width="203.365234375" height="100"/></g><g transform="translate(-22,-62) scale(1,1)"><path fill="none" stroke="#000000" d="M 1144 168 L 1347.365234375 168 L 1347.365234375 268 L 1144 268 L 1144 168 Z Z" stroke-miterlimit="10"/></g><g transform="translate(-22,-62) scale(1,1)"><path fill="none" stroke="#000000" d="M 1144 193 L 1347.365234375 193" stroke-miterlimit="10"/></g><g transform="translate(-22,-62) scale(1,1)"><path fill="none" stroke="#000000" d="M 1144 231 L 1347.365234375 231" stroke-miterlimit="10"/></g><g transform="translate(-22,-62) scale(1,1)"><g><path fill="none" stroke="none"/><text fill="#000000" stroke="none" font-family="Arial" font-size="13px" font-style="normal" font-weight="bold" text-decoration="none" x="1208.843994140625" y="186">EmailGroup</text></g></g><g transform="translate(-22,-62) scale(1,1)"><g><path fill="none" stroke="none"/><text fill="#000000" stroke="none" font-family="Arial" font-size="13px" font-style="normal" font-weight="normal" text-decoration="none" x="1149" y="209">-SENDER: String</text></g></g><g transform="translate(-22,-62) scale(1,1)"><g><path fill="none" stroke="none"/><text fill="#000000" stroke="none" font-family="Arial" font-size="13px" font-style="normal" font-weight="normal" text-decoration="none" x="1149" y="224">-RECEIVERS: LinkedList&lt;String&gt;</text></g></g><g transform="translate(-22,-62) scale(1,1)"><g><path fill="none" stroke="none"/><text fill="#000000" stroke="none" font-family="Arial" font-size="13px" font-style="normal" font-weight="normal" text-decoration="none" x="1149" y="247">+EmailGroup(sender: String)</text></g></g><g transform="translate(-22,-62) scale(1,1)"><g><path fill="none" stroke="none"/><text fill="#000000" stroke="none" font-family="Arial" font-size="13px" font-style="normal" font-weight="normal" text-decoration="none" x="1149" y="262">+addReceiver(receiver: String)</text></g></g><g transform="translate(-22,-62) scale(1,1)"><rect fill="#C0C0C0" stroke="none" x="1127" y="319" width="228.298828125" height="100" opacity="0.2"/></g><g transform="translate(-22,-62) scale(1,1)"><rect fill="#ffffff" stroke="none" x="1120" y="312" width="228.298828125" height="100"/></g><g transform="translate(-22,-62) scale(1,1)"><path fill="none" stroke="#000000" d="M 1120 312 L 1348.298828125 312 L 1348.298828125 412 L 1120 412 L 1120 312 Z Z" stroke-miterlimit="10"/></g><g transform="translate(-22,-62) scale(1,1)"><path fill="none" stroke="#000000" d="M 1120 337 L 1348.298828125 337" stroke-miterlimit="10"/></g><g transform="translate(-22,-62) scale(1,1)"><path fill="none" stroke="#000000" d="M 1120 375 L 1348.298828125 375" stroke-miterlimit="10"/></g><g transform="translate(-22,-62) scale(1,1)"><g><path fill="none" stroke="none"/><text fill="#000000" stroke="none" font-family="Arial" font-size="13px" font-style="normal" font-weight="bold" text-decoration="none" x="1201.99853515625" y="330">ServerInfo</text></g></g><g transform="translate(-22,-62) scale(1,1)"><g><path fill="none" stroke="none"/><text fill="#000000" stroke="none" font-family="Arial" font-size="13px" font-style="normal" font-weight="normal" text-decoration="none" x="1125" y="353">-HOST: String</text></g></g><g transform="translate(-22,-62) scale(1,1)"><g><path fill="none" stroke="none"/><text fill="#000000" stroke="none" font-family="Arial" font-size="13px" font-style="normal" font-weight="normal" text-decoration="none" x="1125" y="368">-PORT: Integer</text></g></g><g transform="translate(-22,-62) scale(1,1)"><g><path fill="none" stroke="none"/><text fill="#000000" stroke="none" font-family="Arial" font-size="13px" font-style="normal" font-weight="normal" text-decoration="none" x="1125" y="391">+ServerInfo(host: String, port: Integer)</text></g></g><g transform="translate(-22,-62) scale(1,1)"><rect fill="#C0C0C0" stroke="none" x="735" y="487" width="137.60000000000002" height="15" opacity="0.2"/></g><g transform="translate(-22,-62) scale(1,1)"><rect fill="#C0C0C0" stroke="none" x="735" y="501" width="344" height="186" opacity="0.2"/></g><g transform="translate(-22,-62) scale(1,1)"><rect fill="#ffffff" stroke="none" x="728" y="495" width="344" height="185"/></g><g transform="translate(-22,-62) scale(1,1)"><path fill="none" stroke="#000000" d="M 728 495 L 1072 495 L 1072 680 L 728 680 L 728 495 Z Z" stroke-miterlimit="10"/></g><g transform="translate(-22,-62) scale(1,1)"><rect fill="#ffffff" stroke="none" x="728" y="480" width="137.60000000000002" height="15"/></g><g transform="translate(-22,-62) scale(1,1)"><path fill="none" stroke="#000000" d="M 728 480 L 865.6 480 L 865.6 495 L 728 495 L 728 480 Z Z" stroke-miterlimit="10"/></g><g transform="translate(-22,-62) scale(1,1)"><rect fill="#ffffff" stroke="none" x="728" y="494" width="344" height="186"/></g><g transform="translate(-22,-62) scale(1,1)"><path fill="none" stroke="#000000" d="M 728 494 L 1072 494 L 1072 680 L 728 680 L 728 494 Z Z" stroke-miterlimit="10"/></g><g transform="translate(-22,-62) scale(1,1)"><g><path fill="none" stroke="none"/><text fill="#000000" stroke="none" font-family="Arial" font-size="13px" font-style="normal" font-weight="bold" text-decoration="none" x="884.470458984375" y="512.5">smtp</text></g></g><g transform="translate(-22,-62) scale(1,1)"><rect fill="#C0C0C0" stroke="none" x="759" y="543" width="275.931640625" height="85" opacity="0.2"/></g><g transform="translate(-22,-62) scale(1,1)"><rect fill="#ffffff" stroke="none" x="752" y="536" width="275.931640625" height="85"/></g><g transform="translate(-22,-62) scale(1,1)"><path fill="none" stroke="#000000" d="M 752 536 L 1027.931640625 536 L 1027.931640625 621 L 752 621 L 752 536 Z Z" stroke-miterlimit="10"/></g><g transform="translate(-22,-62) scale(1,1)"><path fill="none" stroke="#000000" d="M 752 561 L 1027.931640625 561" stroke-miterlimit="10"/></g><g transform="translate(-22,-62) scale(1,1)"><path fill="none" stroke="#000000" d="M 752 571 L 1027.931640625 571" stroke-miterlimit="10"/></g><g transform="translate(-22,-62) scale(1,1)"><g><path fill="none" stroke="none"/><text fill="#000000" stroke="none" font-family="Arial" font-size="13px" font-style="normal" font-weight="bold" text-decoration="none" x="853.85400390625" y="554">SMTPClient</text></g></g><g transform="translate(-22,-62) scale(1,1)"><g><path fill="none" stroke="none"/><text fill="#000000" stroke="none" font-family="Arial" font-size="13px" font-style="normal" font-weight="normal" text-decoration="none" x="757" y="587">+SMTPClient(email: Email, server: ServerInfo)</text></g></g><g transform="translate(-22,-62) scale(1,1)"><g><path fill="none" stroke="none"/><text fill="#000000" stroke="none" font-family="Arial" font-size="13px" font-style="normal" font-weight="normal" text-decoration="none" x="757" y="602">+send()</text></g></g><g transform="translate(-22,-62) scale(1,1)"><path fill="none" stroke="#000000" d="M 1240 412 L 1240 578 L 1028 578" stroke-miterlimit="10"/></g><g transform="translate(-22,-62) scale(1,1)"><g><path fill="none" stroke="none"/><text fill="#000000" stroke="none" font-family="Arial" font-size="13px" font-style="normal" font-weight="normal" text-decoration="none" x="1223.5" y="438">1</text></g></g><g transform="translate(-22,-62) scale(1,1)"><g><path fill="none" stroke="none"/><text fill="#000000" stroke="none" font-family="Arial" font-size="13px" font-style="normal" font-weight="normal" text-decoration="none" x="1046.5" y="570">*</text></g></g><g transform="translate(-22,-62) scale(1,1)"><path fill="none" stroke="#000000" d="M 888 264 L 888 416 L 976 416 L 976 536" stroke-miterlimit="10"/></g><g transform="translate(-22,-62) scale(1,1)"><g><path fill="none" stroke="none"/><text fill="#000000" stroke="none" font-family="Arial" font-size="13px" font-style="normal" font-weight="normal" text-decoration="none" x="871.5" y="290">1</text></g></g><g transform="translate(-22,-62) scale(1,1)"><g><path fill="none" stroke="none"/><text fill="#000000" stroke="none" font-family="Arial" font-size="13px" font-style="normal" font-weight="normal" text-decoration="none" x="960.5" y="519">*</text></g></g></g></svg>